<?xml version="1.0" encoding="utf-8"?>
<!-- Generator: Adobe Illustrator 19.2.1, SVG Export Plug-In . SVG Version: 6.00 Build 0)  -->
<svg version="1.1" id="layer" xmlns="http://www.w3.org/2000/svg" xmlns:xlink="http://www.w3.org/1999/xlink" x="0px" y="0px"
	 viewBox="0 0 652 652" style="enable-background:new 0 0 652 652;" xml:space="preserve">
<style type="text/css">
	.st0{fill:#003C71;}
	.st1{fill:#FFFFFF;}
</style>
<g id="layer1" transform="translate(-197.8325,-509.65281)">
	<g id="g3092" transform="matrix(1.25,0,0,-1.25,197.7575,555.14656)">
		<rect x="-43.7" y="-278.9" class="st0" width="600" height="115.6"/>
		<path id="path3102" class="st1" d="M74.2-207.5c0,0-7.8,0-8,0c0-0.3,0-15.2,0-15.2h-17c0,0,0,15,0,15.2c-0.2,0-7.9,0-8.1,0
			c0-0.3,0-15.2,0-15.2s-7.1,0-7.3,0c0-0.2,0-7.4,0-7.6c0.2,0,7.3,0,7.3,0s0-17.4,0-17.7c0.2,0,7.9,0,8.1,0c0,0.2,0,17.7,0,17.7h17
			c0,0,0-17.4,0-17.7c0.2,0,7.9,0,8.1,0c0,0.2,0,40.3,0,40.5C74.3-207.5,74.2-207.5,74.2-207.5"/>
		<path id="path3104" class="st1" d="M84.6-207.5c0-0.3,0-15.2,0-15.2s-7.2,0-7.4,0c0-0.2,0-7.4,0-7.6c0.2,0,7.4,0,7.4,0
			s0-17.4,0-17.7c0.2,0,26.4,0,26.7,0c0,0.2,0,7.4,0,7.6c-0.2,0-18.7,0-18.7,0v10.1c0,0,17.2,0,17.5,0c0,0.2,0,7.4,0,7.6
			c-0.2,0-17.5,0-17.5,0v7.6h18.7c0,0,0,7.6,0,7.6C111.3-207.5,84.9-207.5,84.6-207.5"/>
		<path id="path3106" class="st1" d="M393.1-192.6h18.7v-7.2h-18.7V-192.6z"/>
		<path id="path3108" class="st1" d="M433.3-221.9l5.6-11.5h-11.1L433.3-221.9z M412.2-248h9.4l3.3,7.4h16.9l3.3-7.4h9.4l-21.1,43
			L412.2-248"/>
		<path id="path3110" class="st1" d="M385.2-207.5c0-0.3,0-15.2,0-15.2s-6.6,0-6.9,0c0-0.2,0-7.4,0-7.6c0.2,0,6.9,0,6.9,0
			s0-17.4,0-17.7c0.3,0,26.7,0,26.7,0s0,7.4,0,7.6c-0.3,0-18.7,0-18.7,0v10.1c0,0,17.2,0,17.5,0c0,0.2,0,7.4,0,7.6
			c-0.3,0-17.5,0-17.5,0v7.6c0,0,18.4,0,18.7,0c0,0.2,0,7.4,0,7.6C411.8-207.5,385.4-207.5,385.2-207.5"/>
		<path id="path3112" class="st1" d="M113.5-227.6c0-12,9.7-21.5,22.1-21.5c6.9,0,13.1,3,17.5,8.3c0,0,0.2,0.3,0.3,0.4
			c-0.2,0.2-6.5,4.7-6.7,4.8c-0.1-0.1-0.3-0.4-0.3-0.4c-2.6-3.4-6.5-5.4-10.8-5.4c-7.3,0-13.5,6.2-13.5,13.6
			c0,7.4,6.2,13.3,13.5,13.3c4.4,0,8.2-2,10.7-5.6c0,0,7.1,4.7,7.1,4.7c-0.1,0.1-0.3,0.4-0.3,0.4c-4.3,5.4-10.5,8.3-17.5,8.3
			C123.2-206.5,113.5-215.6,113.5-227.6"/>
		<path id="path3114" class="st1" d="M197.6-223.5l-19.3,17.1c0,0,0-41.3,0-41.6c0.2,0,7.9,0,8.1,0c0,0.2,0,23.8,0,23.8l11.2-9.9
			l11.2,9.9c0,0,0-23.6,0-23.8c0.2,0,7.9,0,8.1,0c0,0.2,0,41.6,0,41.6L197.6-223.5"/>
		<path id="path3124" class="st1" d="M242.8-241.2c-7.3,0-13.4,5.9-13.4,13.3s6.1,13.5,13.4,13.5c7.3,0,13.4-6.2,13.4-13.5
			S250.1-241.2,242.8-241.2z M242.8-206.5c-12.4,0-22.1-9.4-22.1-21.4c0-12,9.7-21.2,22.1-21.2c12.4,0,22.1,9.1,22.1,21.2
			C264.9-215.9,255.2-206.5,242.8-206.5"/>
		<path id="path3126" class="st1" d="M268.7-248c0.3,0,7.9,0,8.1,0c0,0.2,0,23.5,0,23.5s25.7-25.1,25.8-25.2c0,0.6,0,42,0,42.2
			c-0.3,0-7.9,0-8.1,0c0-0.3,0-22.3,0-22.3l-25.8,24C268.7-205.8,268.7-247.8,268.7-248"/>
		<path id="path3128" class="st1" d="M338.6-207.5c0,0-31.2,0-31.5,0c0-0.2,0-7.5,0-7.8c0.2,0,11.7,0,11.7,0s0-32.5,0-32.8
			c0.2,0,7.9,0,8.1,0c0,0.2,0,32.8,0,32.8s11.5,0,11.8,0c0,0.2,0,7.5,0,7.8C338.6-207.5,338.6-207.5,338.6-207.5"/>
		<path id="path3130" class="st1" d="M463.3-207.5c0,0-7.8,0-8,0c0-0.3,0-40.3,0-40.5c0.2,0,23.2,0,23.4,0c0,0.2,0,7.5,0,7.8
			c-0.2,0-15.3,0-15.3,0s0,32.5,0,32.8C463.4-207.5,463.3-207.5,463.3-207.5"/>
		<path id="path3132" class="st1" d="M351.2-222.8v7.7h12.7c3.5,0,4.8-2.4,4.8-4.3c0-1.9-1.3-3.4-4.8-3.4H351.2L351.2-222.8z
			 M367-230.2l0.5,0.1c6.1,1.2,9.4,4.6,9.4,10.8c0,7.6-4.9,11.8-13.6,11.8h-19.7c0,0-0.3,0-0.5,0c0-0.1,0-14.7,0-15.2h-6.6v-7.6h6.6
			c0-9,0-17.6,0-17.7c0.2,0,7.9,0,8.1,0c0,0.2,0,17.7,0,17.7h6.7c0,0,10.1-17.6,10.2-17.7c0.1,0,9.2,0,9.6,0
			C377.5-247.7,367-230.2,367-230.2"/>
	</g>
</g>
</svg>
